<?xml version="1.0" encoding="utf-8"?>
<!-- Generator: Adobe Illustrator 24.0.0, SVG Export Plug-In . SVG Version: 6.00 Build 0)  -->
<svg version="1.1" id="Layer_1" xmlns="http://www.w3.org/2000/svg" xmlns:xlink="http://www.w3.org/1999/xlink" x="0px" y="0px"
	 viewBox="0 0 147.5 52.7" style="enable-background:new 0 0 147.5 52.7;" xml:space="preserve">
<style type="text/css">
	.st0{fill:#80CBC4;}
	.st1{fill:#B2DFDB;}
	.st2{fill:#24484E;}
	.st3{fill:#204146;}
	.st4{fill:#506D71;}
	.st5{fill:#E2E2E2;}
	.st6{fill:#F2F2F2;}
	.st7{fill:#E5E5E5;}
	.st8{font-family:'Noteworthy-Light';}
	.st9{font-size:19.49px;}
	.st10{fill:none;stroke:#24484E;stroke-width:0.65;stroke-miterlimit:10;}
	.st11{fill:#1565C0;}
	.st12{fill:#0D47A1;}
	.st13{fill:#1976D2;}
</style>
<title>Artboard 1</title>
<g>
	<polyline class="st0" points="37.1,19.8 27,29.9 14.6,19.6 24.2,8.7 37.1,19.8 	"/>
	<polyline class="st1" points="37.7,24.7 24.6,30.5 16.8,16.4 29.6,9.7 37.7,24.7 	"/>
	<path class="st2" d="M30.2,31.8c-3.3,5.7-10.7,7.7-16.4,4.4C8,32.9,6.1,25.6,9.4,19.8c3.3-5.7,10.6-7.7,16.3-4.4
		C31.5,18.7,33.5,26,30.2,31.8C30.2,31.8,30.2,31.8,30.2,31.8"/>
	<path class="st3" d="M17.9,36.3L17.9,36.3c-0.4,0-0.6-0.1-0.9-0.2c-1.5-0.3-3-1-4.2-2l0.3-0.7c1.4,1.1,3.1,1.9,4.9,2.1
		c0.2,0,0.4,0.2,0.3,0.4c0,0,0,0,0,0C18.2,36.1,18.1,36.3,17.9,36.3 M11.7,33.1c-0.5-0.5-0.9-1.1-1.2-1.8c-0.6-1.2-1-2.5-1-3.9
		c0-0.2,0.2-0.4,0.4-0.4l0,0c0.2,0,0.4,0.2,0.4,0.4c0,0,0,0,0,0c0.1,1.8,0.7,3.5,1.9,4.9L11.7,33.1"/>
	<path class="st4" d="M27.4,19.1c-0.1,0-0.2-0.1-0.3-0.1c-0.7-1.2-1.9-2.1-3.2-2.5c-0.2,0-0.3-0.2-0.2-0.3c0,0,0,0,0,0
		c0-0.1,0.2-0.3,0.3-0.2H24c1.5,0.4,2.8,1.5,3.6,2.8c0.1,0.1,0.1,0.3-0.1,0.4c0,0,0,0,0,0C27.5,19.1,27.4,19.1,27.4,19.1"/>
	<path class="st4" d="M28.8,21.4c-0.1,0-0.2-0.1-0.3-0.2c-0.1-0.4-0.4-0.7-0.6-1c-0.1-0.1-0.1-0.3,0-0.4c0,0,0,0,0,0
		c0.1-0.1,0.2-0.1,0.2-0.1c0.1,0,0.1,0,0.2,0.1c0.4,0.3,0.6,0.7,0.8,1.2c0.1,0.2,0,0.3-0.1,0.4C29,21.3,28.9,21.3,28.8,21.4"/>
	<path class="st5" d="M10.4,39.3l6-13.5l-0.8-0.4L8.8,38.6c-0.2,0.4,0,1,0.4,1.2S10.2,39.8,10.4,39.3L10.4,39.3"/>
	<path class="st6" d="M19.7,24.8c-1,2-2.9,3.1-4.4,2.4s-1.8-2.9-0.9-4.9s2.9-3.1,4.4-2.4S20.6,22.8,19.7,24.8"/>
	<path class="st7" d="M15.6,27L15.6,27h-0.1c-0.5-0.2-0.9-0.6-1.1-1.1c-0.1-0.3-0.1-0.6-0.1-0.8c0-0.1,0.1-0.1,0.2-0.1l0,0
		c0.1,0,0.2,0.1,0.1,0.2c0,0,0,0,0,0c-0.1,0.7,0.3,1.4,1,1.6c0.1,0,0.1,0.1,0.1,0.2C15.7,27,15.7,27,15.6,27"/>
	<path class="st7" d="M16.3,26.4c-0.2,0-0.4,0-0.5-0.1c-0.9-0.4-1.1-2-0.4-3.5c0.4-1.1,1.3-1.8,2.4-2c0.2,0,0.4,0,0.5,0.1
		c0.9,0.5,1.1,2,0.4,3.5C18.3,25.4,17.4,26.2,16.3,26.4"/>
	<path class="st5" d="M31.5,42.8l-6-13.5l-0.8,0.3l5.2,13.8c0.2,0.5,0.6,0.7,1.1,0.6c0.5-0.2,0.7-0.6,0.6-1.1
		C31.6,42.9,31.5,42.8,31.5,42.8"/>
	<path class="st6" d="M24.6,24l1.1,2.7c0.1,0.2,0,0.4-0.1,0.5c-0.2,0.1-0.4,0-0.5-0.1c0,0,0,0,0-0.1l-1.3-3.1
		c-0.1-0.1-0.3-0.2-0.4-0.1c-0.1,0.1-0.2,0.2-0.1,0.3l1.3,3.1c0.1,0.2,0,0.3-0.2,0.4l-0.1,0c-0.2,0.1-0.3,0-0.4-0.2l-1.3-3.1
		c-0.1-0.2-0.2-0.2-0.4-0.2s-0.2,0.2-0.2,0.4l0,0l1.3,3.1c0.1,0.1,0,0.3-0.1,0.4l-0.2,0.1c-0.1,0.1-0.3,0-0.4-0.1l-1.1-2.7
		c0-0.1-0.1-0.1-0.2-0.1c0,0-0.1,0-0.1,0.1c-0.2,1-0.1,2.1,0.3,3c0.9,2.1,2.7,3.2,4.2,2.6s2-2.8,1.1-4.9c-0.4-1-1.1-1.9-2.1-2.4
		c-0.1,0-0.2,0-0.2,0.1C24.6,23.9,24.6,23.9,24.6,24"/>
	<path class="st7" d="M24.6,30.9c-0.3,0-0.5-0.1-0.8-0.2c-0.3-0.1-0.5-0.3-0.7-0.5c-0.1-0.1-0.1-0.2,0-0.2c0,0,0.1,0,0.1,0
		c0.1,0,0.1,0,0.1,0.1c0.3,0.3,0.7,0.6,1.1,0.6c0.3,0,0.5-0.1,0.7-0.2c0,0,0.1,0,0.1,0c0.1,0,0.1,0,0.1,0.1c0.1,0.1,0,0.2,0,0.2
		c0,0,0,0,0,0l-0.1,0C25.2,30.9,24.9,31,24.6,30.9"/>
</g>
<text transform="matrix(1.01 0 0 1 38.6499 35.6904)" class="st2 st8 st9">M</text>
<text transform="matrix(1.01 0 0 1 38.6499 35.6904)" class="st10 st8 st9">M</text>
<text transform="matrix(1.01 0 0 1 54.6182 35.6904)" class="st2 st8 st9">e</text>
<text transform="matrix(1.01 0 0 1 54.6182 35.6904)" class="st10 st8 st9">e</text>
<text transform="matrix(1.01 0 0 1 62.7383 35.6904)" class="st2 st8 st9">a</text>
<text transform="matrix(1.01 0 0 1 62.7383 35.6904)" class="st10 st8 st9">a</text>
<text transform="matrix(1.01 0 0 1 72.1416 35.6904)" class="st2 st8 st9">l</text>
<text transform="matrix(1.01 0 0 1 72.1416 35.6904)" class="st10 st8 st9">l</text>
<text transform="matrix(1.01 0 0 1 74.606 35.6904)" class="st2 st8 st9">s Cor</text>
<text transform="matrix(1.01 0 0 1 74.606 35.6904)" class="st10 st8 st9">s Cor</text>
<text transform="matrix(1.01 0 0 1 116.0762 35.6904)" class="st2 st8 st9">n</text>
<text transform="matrix(1.01 0 0 1 116.0762 35.6904)" class="st10 st8 st9">n</text>
<text transform="matrix(1.01 0 0 1 125.2275 35.6904)" class="st2 st8 st9">er</text>
<text transform="matrix(1.01 0 0 1 125.2275 35.6904)" class="st10 st8 st9">er</text>
<g>
	<polyline class="st0" points="38.8,65.3 28.7,75.4 16.3,65.1 25.8,54.2 38.8,65.3 	"/>
	<polyline class="st1" points="39.3,70.3 26.2,76 18.5,61.9 31.3,55.2 39.3,70.3 	"/>
	<path class="st11" d="M31.8,77.4c-3.3,5.7-10.7,7.7-16.4,4.4C9.7,78.4,7.7,71.1,11,65.4c3.3-5.7,10.6-7.7,16.3-4.4
		C33.1,64.2,35.1,71.5,31.8,77.4C31.9,77.3,31.8,77.3,31.8,77.4"/>
	<path class="st12" d="M19.5,81.8L19.5,81.8c-0.4,0-0.6-0.1-0.9-0.2c-1.5-0.3-3-1-4.2-2l0.3-0.7c1.4,1.1,3.1,1.9,4.9,2.1
		c0.2,0,0.4,0.2,0.3,0.4c0,0,0,0,0,0C19.9,81.7,19.7,81.8,19.5,81.8 M13.4,78.7c-0.5-0.5-0.9-1.1-1.2-1.8c-0.6-1.2-1-2.5-1-3.9
		c0-0.2,0.2-0.4,0.4-0.4l0,0c0.2,0,0.4,0.2,0.4,0.4c0,0,0,0,0,0c0.1,1.8,0.7,3.5,1.9,4.9L13.4,78.7"/>
	<path class="st13" d="M29,64.7c-0.1,0-0.2-0.1-0.3-0.1c-0.7-1.2-1.9-2.1-3.2-2.5c-0.2,0-0.3-0.2-0.2-0.3c0,0,0,0,0,0
		c0-0.1,0.2-0.3,0.3-0.3h0.1c1.5,0.4,2.8,1.5,3.6,2.8c0.1,0.1,0.1,0.3-0.1,0.4c0,0,0,0,0,0C29.2,64.6,29.1,64.7,29,64.7"/>
	<path class="st13" d="M30.5,66.9c-0.1,0-0.2-0.1-0.3-0.2c-0.1-0.4-0.4-0.7-0.6-1c-0.1-0.1-0.1-0.3,0-0.4c0,0,0,0,0,0
		c0.1-0.1,0.2-0.1,0.2-0.1c0.1,0,0.1,0,0.2,0.1c0.4,0.3,0.6,0.7,0.8,1.2c0.1,0.2,0,0.3-0.1,0.4C30.6,66.8,30.6,66.8,30.5,66.9"/>
	<path class="st5" d="M12.1,84.8l6-13.5L17.3,71l-6.8,13.1c-0.2,0.4,0,1,0.4,1.2C11.4,85.5,11.9,85.3,12.1,84.8L12.1,84.8"/>
	<path class="st6" d="M21.3,70.4c-1,2-2.9,3.1-4.4,2.4c-1.5-0.7-1.8-2.9-0.9-4.9c1-2,2.9-3.1,4.4-2.4C21.9,66.2,22.3,68.4,21.3,70.4
		"/>
	<path class="st7" d="M17.2,72.5L17.2,72.5h-0.1c-0.5-0.2-0.9-0.6-1.1-1.2C16,71.1,16,70.8,16,70.5c0-0.1,0.1-0.1,0.2-0.2l0,0
		c0.1,0,0.2,0.1,0.1,0.2c0,0,0,0,0,0c-0.1,0.7,0.3,1.4,1,1.6c0.1,0,0.1,0.1,0.1,0.2C17.4,72.5,17.3,72.6,17.2,72.5"/>
	<path class="st7" d="M18,71.9c-0.2,0-0.4,0-0.5-0.1c-0.9-0.4-1.1-2-0.4-3.5c0.4-1.1,1.3-1.8,2.4-2c0.2,0,0.4,0,0.5,0.1
		c0.9,0.5,1.1,2,0.4,3.5C20,71,19.1,71.7,18,71.9"/>
	<path class="st5" d="M33.2,88.3l-6-13.5l-0.8,0.3L31.6,89c0.2,0.5,0.6,0.7,1.1,0.6c0.5-0.2,0.7-0.6,0.6-1.1
		C33.2,88.4,33.2,88.4,33.2,88.3"/>
	<path class="st6" d="M26.3,69.5l1.1,2.7c0.1,0.2,0,0.4-0.1,0.5c-0.2,0.1-0.4,0-0.5-0.1c0,0,0,0,0-0.1l-1.3-3.1
		c-0.1-0.1-0.3-0.2-0.4-0.1c-0.1,0.1-0.2,0.2-0.1,0.3l1.3,3.2c0.1,0.2,0,0.3-0.2,0.4l-0.1,0c-0.2,0.1-0.3,0-0.4-0.2L24.2,70
		c-0.1-0.2-0.2-0.2-0.4-0.2s-0.2,0.2-0.2,0.4l0,0l1.3,3.1c0.1,0.1,0,0.3-0.1,0.4l-0.2,0.1c-0.1,0.1-0.3,0-0.4-0.2l-1.1-2.7
		c0-0.1-0.1-0.1-0.2-0.1c0,0-0.1,0-0.1,0.1c-0.2,1-0.1,2.1,0.3,3.1c0.9,2.1,2.7,3.2,4.2,2.6c1.5-0.6,2-2.8,1.1-4.9
		c-0.4-1-1.1-1.9-2.1-2.4c-0.1,0-0.2,0-0.2,0.1C26.3,69.4,26.3,69.5,26.3,69.5"/>
	<path class="st7" d="M26.3,76.5c-0.3,0-0.5-0.1-0.8-0.2c-0.3-0.1-0.5-0.3-0.7-0.5c-0.1-0.1-0.1-0.2,0-0.2c0,0,0.1,0,0.1,0
		c0.1,0,0.1,0,0.1,0.1c0.3,0.3,0.7,0.6,1.2,0.6c0.3,0,0.5-0.1,0.7-0.2c0,0,0.1,0,0.1,0c0.1,0,0.1,0,0.1,0.1c0.1,0.1,0,0.2,0,0.2
		c0,0,0,0,0,0l-0.1,0C26.8,76.4,26.6,76.5,26.3,76.5"/>
</g>
</svg>
