<svg id="Layer_1" data-name="Layer 1" xmlns="http://www.w3.org/2000/svg" viewBox="0 0 147.5 52.7"><defs><style>.cls-1{fill:#d6a685;}.cls-2{fill:#e2bb9f;}.cls-3,.cls-9{fill:#24484e;}.cls-4{fill:#204146;}.cls-5{fill:#506d71;}.cls-6{fill:#e2e2e2;}.cls-7{fill:#f2f2f2;}.cls-8{fill:#e5e5e5;}.cls-9{font-size:19.49px;stroke:#24484e;stroke-miterlimit:10;stroke-width:0.65px;font-family:Noteworthy-Light, Noteworthy;font-weight:300;}.cls-10{letter-spacing:-0.01em;}.cls-11{letter-spacing:0.03em;}.cls-12{letter-spacing:-0.03em;}.cls-13{letter-spacing:0.01em;}</style></defs><title>Artboard 1</title><polyline class="cls-1" points="37.09 19.79 27 29.91 14.64 19.61 24.17 8.68 37.09 19.79"/><polyline class="cls-2" points="37.65 24.74 24.57 30.5 16.79 16.42 29.65 9.7 37.65 24.74"/><path class="cls-3" d="M30.16,31.83a12,12,0,1,1-4.47-16.44,12,12,0,0,1,4.47,16.44"/><path class="cls-4" d="M17.86,36.29H17.8c-.3-.05-.58-.1-.85-.17a10.43,10.43,0,0,1-4.22-2l.33-.74a10.07,10.07,0,0,0,4.87,2.11.39.39,0,0,1,.32.46.4.4,0,0,1-.39.33m-6.18-3.15a9.33,9.33,0,0,1-1.23-1.77,9.16,9.16,0,0,1-1-3.85.4.4,0,0,1,.4-.4h0a.39.39,0,0,1,.39.4,8.42,8.42,0,0,0,1.87,4.87l-.39.75"/><path class="cls-5" d="M27.37,19.14a.31.31,0,0,1-.26-.14,5.81,5.81,0,0,0-3.19-2.54.3.3,0,0,1-.24-.37.31.31,0,0,1,.31-.25h.06a6.18,6.18,0,0,1,3.58,2.81.3.3,0,0,1-.09.43.26.26,0,0,1-.17.05"/><path class="cls-5" d="M28.81,21.36a.3.3,0,0,1-.28-.19,2.77,2.77,0,0,0-.63-1,.31.31,0,0,1,0-.44.3.3,0,0,1,.25-.12.35.35,0,0,1,.19.06,3.25,3.25,0,0,1,.81,1.19.33.33,0,0,1-.15.42.35.35,0,0,1-.14,0"/><path class="cls-6" d="M10.42,39.32l6-13.5-.75-.36L8.84,38.57a.87.87,0,1,0,1.58.75"/><path class="cls-7" d="M19.66,24.84c-1,2-2.92,3.08-4.37,2.38s-1.82-2.89-.85-4.9,2.92-3.08,4.36-2.38,1.83,2.89.86,4.9"/><path class="cls-8" d="M15.57,27h0l-.1,0a1.58,1.58,0,0,1-1.07-1.15,2.27,2.27,0,0,1-.06-.84.18.18,0,0,1,.17-.15h0a.16.16,0,0,1,.14.19,1.43,1.43,0,0,0,1,1.63.18.18,0,0,1,.12.22.17.17,0,0,1-.17.12"/><path class="cls-8" d="M16.29,26.37a1.25,1.25,0,0,1-.54-.12c-.92-.44-1.1-2-.4-3.45a3.11,3.11,0,0,1,2.41-2,1.25,1.25,0,0,1,.54.12c.92.45,1.1,2,.39,3.46a3.09,3.09,0,0,1-2.4,2"/><path class="cls-6" d="M31.49,42.79l-6-13.5-.78.32,5.21,13.85a.87.87,0,1,0,1.6-.67"/><path class="cls-7" d="M24.6,24l1.13,2.74a.37.37,0,1,1-.68.28l-1.28-3.1a.3.3,0,0,0-.55.23l1.3,3.15a.32.32,0,0,1-.17.41l-.12.05a.3.3,0,0,1-.39-.16l-1.29-3.12a.31.31,0,0,0-.58.24l1.3,3.14a.28.28,0,0,1-.15.36l-.18.07a.28.28,0,0,1-.36-.15l-1.13-2.74a.13.13,0,0,0-.24,0,4.92,4.92,0,0,0,.29,3.05c.85,2.06,2.74,3.24,4.22,2.63s2-2.78,1.14-4.85a4.9,4.9,0,0,0-2.07-2.43.14.14,0,0,0-.19.18"/><path class="cls-8" d="M24.64,30.93a1.69,1.69,0,0,1-.75-.19,2.18,2.18,0,0,1-.67-.52.17.17,0,0,1,0-.24.14.14,0,0,1,.1,0,.2.2,0,0,1,.14.06,1.64,1.64,0,0,0,1.15.59,1.37,1.37,0,0,0,.72-.23.14.14,0,0,1,.09,0,.16.16,0,0,1,.14.08.17.17,0,0,1-.05.24l-.09.05a1.57,1.57,0,0,1-.81.23"/><text class="cls-9" transform="translate(38.65 35.69) scale(1.01 1)">M<tspan class="cls-10" x="15.81" y="0">e</tspan><tspan class="cls-11" x="23.85" y="0">a</tspan><tspan class="cls-12" x="33.16" y="0">l</tspan><tspan x="35.6" y="0">s Cor</tspan><tspan class="cls-13" x="76.66" y="0">n</tspan><tspan x="85.72" y="0">er</tspan></text></svg>