<?xml version="1.0" encoding="utf-8"?>
<!-- Generator: Adobe Illustrator 24.0.0, SVG Export Plug-In . SVG Version: 6.00 Build 0)  -->
<svg version="1.1" id="Layer_1" xmlns="http://www.w3.org/2000/svg" xmlns:xlink="http://www.w3.org/1999/xlink" x="0px" y="0px"
	 viewBox="0 0 147.5 52.7" style="enable-background:new 0 0 147.5 52.7;" xml:space="preserve">
<style type="text/css">
	.st0{fill:#80CBC4;}
	.st1{fill:#B2DFDB;}
	.st2{fill:#24484E;}
	.st3{fill:#204146;}
	.st4{fill:#506D71;}
	.st5{fill:#E2E2E2;}
	.st6{fill:#F2F2F2;}
	.st7{fill:#E5E5E5;}
	.st8{enable-background:new    ;}
	.st9{fill:none;stroke:#24484E;stroke-width:0.65;stroke-miterlimit:10;}
</style>
<title>Artboard 1</title>
<g>
	<polyline class="st0" points="37.1,19.8 27,29.9 14.6,19.6 24.2,8.7 37.1,19.8 	"/>
	<polyline class="st1" points="37.7,24.7 24.6,30.5 16.8,16.4 29.6,9.7 37.7,24.7 	"/>
	<path class="st2" d="M30.2,31.8c-3.3,5.7-10.7,7.7-16.4,4.4C8,32.9,6.1,25.6,9.4,19.8c3.3-5.7,10.6-7.7,16.3-4.4
		C31.5,18.7,33.5,26,30.2,31.8L30.2,31.8"/>
	<path class="st3" d="M17.9,36.3L17.9,36.3c-0.4,0-0.6-0.1-0.9-0.2c-1.5-0.3-3-1-4.2-2l0.3-0.7c1.4,1.1,3.1,1.9,4.9,2.1
		c0.2,0,0.4,0.2,0.3,0.4l0,0C18.2,36.1,18.1,36.3,17.9,36.3 M11.7,33.1c-0.5-0.5-0.9-1.1-1.2-1.8c-0.6-1.2-1-2.5-1-3.9
		c0-0.2,0.2-0.4,0.4-0.4l0,0c0.2,0,0.4,0.2,0.4,0.4l0,0c0.1,1.8,0.7,3.5,1.9,4.9L11.7,33.1"/>
	<path class="st4" d="M27.4,19.1c-0.1,0-0.2-0.1-0.3-0.1c-0.7-1.2-1.9-2.1-3.2-2.5c-0.2,0-0.3-0.2-0.2-0.3l0,0
		c0-0.1,0.2-0.3,0.3-0.2h0c1.5,0.4,2.8,1.5,3.6,2.8c0.1,0.1,0.1,0.3-0.1,0.4l0,0C27.5,19.1,27.4,19.1,27.4,19.1"/>
	<path class="st4" d="M28.8,21.4c-0.1,0-0.2-0.1-0.3-0.2c-0.1-0.4-0.4-0.7-0.6-1c-0.1-0.1-0.1-0.3,0-0.4l0,0
		c0.1-0.1,0.2-0.1,0.2-0.1c0.1,0,0.1,0,0.2,0.1c0.4,0.3,0.6,0.7,0.8,1.2c0.1,0.2,0,0.3-0.1,0.4C29,21.3,28.9,21.3,28.8,21.4"/>
	<path class="st5" d="M10.4,39.3l6-13.5l-0.8-0.4L8.8,38.6c-0.2,0.4,0,1,0.4,1.2S10.2,39.8,10.4,39.3L10.4,39.3"/>
	<path class="st6" d="M19.7,24.8c-1,2-2.9,3.1-4.4,2.4s-1.8-2.9-0.9-4.9s2.9-3.1,4.4-2.4S20.6,22.8,19.7,24.8"/>
	<path class="st7" d="M15.6,27L15.6,27h-0.1c-0.5-0.2-0.9-0.6-1.1-1.1c-0.1-0.3-0.1-0.6-0.1-0.8c0-0.1,0.1-0.1,0.2-0.1l0,0
		c0.1,0,0.2,0.1,0.1,0.2l0,0c-0.1,0.7,0.3,1.4,1,1.6C15.7,26.8,15.7,26.9,15.6,27C15.7,27,15.7,27,15.6,27"/>
	<path class="st7" d="M16.3,26.4c-0.2,0-0.4,0-0.5-0.1c-0.9-0.4-1.1-2-0.4-3.5c0.4-1.1,1.3-1.8,2.4-2c0.2,0,0.4,0,0.5,0.1
		c0.9,0.5,1.1,2,0.4,3.5C18.3,25.4,17.4,26.2,16.3,26.4"/>
	<path class="st5" d="M31.5,42.8l-6-13.5l-0.8,0.3l5.2,13.8c0.2,0.5,0.6,0.7,1.1,0.6c0.5-0.2,0.7-0.6,0.6-1.1
		C31.6,42.9,31.5,42.8,31.5,42.8"/>
	<path class="st6" d="M24.6,24l1.1,2.7c0.1,0.2,0,0.4-0.1,0.5c-0.2,0.1-0.4,0-0.5-0.1c0,0,0,0,0-0.1l-1.3-3.1
		c-0.1-0.1-0.3-0.2-0.4-0.1s-0.2,0.2-0.1,0.3l1.3,3.1c0.1,0.2,0,0.3-0.2,0.4h-0.1c-0.2,0.1-0.3,0-0.4-0.2l-1.3-3.1
		c-0.1-0.2-0.2-0.2-0.4-0.2S22,24.3,22,24.5l0,0l1.3,3.1c0.1,0.1,0,0.3-0.1,0.4L23,28.1c-0.1,0.1-0.3,0-0.4-0.1l-1.1-2.7
		c0-0.1-0.1-0.1-0.2-0.1c0,0-0.1,0-0.1,0.1c-0.2,1-0.1,2.1,0.3,3c0.9,2.1,2.7,3.2,4.2,2.6s2-2.8,1.1-4.9c-0.4-1-1.1-1.9-2.1-2.4
		c-0.1,0-0.2,0-0.2,0.1C24.6,23.9,24.6,23.9,24.6,24"/>
	<path class="st7" d="M24.6,30.9c-0.3,0-0.5-0.1-0.8-0.2s-0.5-0.3-0.7-0.5C23,30.1,23,30,23.1,30h0.1c0.1,0,0.1,0,0.1,0.1
		c0.3,0.3,0.7,0.6,1.1,0.6c0.3,0,0.5-0.1,0.7-0.2h0.1c0.1,0,0.1,0,0.1,0.1c0.1,0.1,0,0.2,0,0.2l0,0h-0.1
		C25.2,30.9,24.9,31,24.6,30.9"/>
</g>
<g class="st8">
	<path class="st2" d="M54,19.5c0,0.1-0.1,0.3-0.2,0.4c-0.1,0.1-0.2,0.3-0.3,0.4c-0.1,0.1-0.1,0.4-0.1,0.7c0,0.5,0,0.8,0,0.8
		c-0.4,3.5-0.6,6.7-0.6,9.7c0,1.6,0,2.4,0,2.3c0.1,1.2,0.3,1.8,0.7,1.9v0.2c-0.1,0.2-0.2,0.3-0.4,0.3c-1,0-1.6-1-1.8-3
		c-0.1-0.8-0.1-1.5,0-2.3l0.6-7.9c-0.6,2.2-1.2,4.4-1.8,6.6c-1.1,3.4-2.2,5.2-3.3,5.2c-0.5,0-1-0.3-1.5-0.9c-0.4-0.5-0.7-1-0.9-1.5
		c-0.5-1.3-1-3.1-1.6-5.3c-0.4-1.8-0.8-3.6-1.3-5.4l-0.1,0.4c-0.3,3-0.4,5.2-0.4,6.5l0.2,5.6c0,0.6,0.2,0.9,0.6,1
		c0,0.4-0.4,0.7-1.2,0.7c-0.7,0-1.1-1.3-1.1-4c0-1.2,0.1-3,0.2-5.4c0.1-2.4,0.2-4.2,0.2-5.4c0-0.3,0-0.5-0.1-0.6S39.8,20,39.8,20
		c0-0.6,0.7-1,2-1c0.2,0,0.5,0.2,0.9,0.5c0,0.5,0.1,1.3,0.2,2.2c0.2,1.4,0.7,3.5,1.5,6.2c1,3.3,1.7,5,2.3,5c0.8,0,1.6-1.5,2.5-4.6
		c0.6-2,1-3.9,1.4-5.8c0.2-0.6,0.5-1.5,0.8-2.6c0.2-0.7,0.8-1.1,1.7-1.1c0.2,0,0.4,0.1,0.6,0.2C53.9,19.1,54,19.3,54,19.5z"/>
</g>
<g class="st8">
	<path class="st9" d="M54,19.5c0,0.1-0.1,0.3-0.2,0.4c-0.1,0.1-0.2,0.3-0.3,0.4c-0.1,0.1-0.1,0.4-0.1,0.7c0,0.5,0,0.8,0,0.8
		c-0.4,3.5-0.6,6.7-0.6,9.7c0,1.6,0,2.4,0,2.3c0.1,1.2,0.3,1.8,0.7,1.9v0.2c-0.1,0.2-0.2,0.3-0.4,0.3c-1,0-1.6-1-1.8-3
		c-0.1-0.8-0.1-1.5,0-2.3l0.6-7.9c-0.6,2.2-1.2,4.4-1.8,6.6c-1.1,3.4-2.2,5.2-3.3,5.2c-0.5,0-1-0.3-1.5-0.9c-0.4-0.5-0.7-1-0.9-1.5
		c-0.5-1.3-1-3.1-1.6-5.3c-0.4-1.8-0.8-3.6-1.3-5.4l-0.1,0.4c-0.3,3-0.4,5.2-0.4,6.5l0.2,5.6c0,0.6,0.2,0.9,0.6,1
		c0,0.4-0.4,0.7-1.2,0.7c-0.7,0-1.1-1.3-1.1-4c0-1.2,0.1-3,0.2-5.4c0.1-2.4,0.2-4.2,0.2-5.4c0-0.3,0-0.5-0.1-0.6S39.8,20,39.8,20
		c0-0.6,0.7-1,2-1c0.2,0,0.5,0.2,0.9,0.5c0,0.5,0.1,1.3,0.2,2.2c0.2,1.4,0.7,3.5,1.5,6.2c1,3.3,1.7,5,2.3,5c0.8,0,1.6-1.5,2.5-4.6
		c0.6-2,1-3.9,1.4-5.8c0.2-0.6,0.5-1.5,0.8-2.6c0.2-0.7,0.8-1.1,1.7-1.1c0.2,0,0.4,0.1,0.6,0.2C53.9,19.1,54,19.3,54,19.5z"/>
</g>
<g class="st8">
	<path class="st2" d="M62.4,33.3c0,0.7-0.5,1.4-1.5,1.9c-0.9,0.5-1.7,0.8-2.5,0.8c-2.2,0-3.3-1.4-3.3-4.1c0-1.2,0.2-2.5,0.7-3.9
		c0.6-1.8,1.3-2.7,2.3-2.7c0.8,0,1.6,0.4,2.6,1.2s1.4,1.6,1.4,2.4c0,1-0.4,1.9-1.2,2.6c-0.8,0.7-1.7,1.1-2.8,1.1
		c-0.1,0-0.3-0.1-0.6-0.2C57.2,32.1,57,32,56.9,32c-0.2,0-0.3,0.1-0.3,0.2c0,1.9,0.6,2.8,1.9,2.8c0.6,0,1.2-0.2,1.8-0.6
		c0.3-0.2,0.7-0.6,1.1-1.1c0.3-0.4,0.5-0.6,0.6-0.6C62.3,32.6,62.4,32.8,62.4,33.3z M60.7,28.8c0-0.6-0.2-1.1-0.5-1.6
		s-0.8-0.7-1.3-0.7c-0.7,0-1.2,0.4-1.6,1.2c-0.3,0.7-0.5,1.4-0.5,2.1c0,0.5,0.2,0.9,0.5,1.2c0.3,0.3,0.7,0.5,1.2,0.5
		c0.7,0,1.2-0.3,1.7-0.9C60.5,30.1,60.7,29.5,60.7,28.8z"/>
</g>
<g class="st8">
	<path class="st9" d="M62.4,33.3c0,0.7-0.5,1.4-1.5,1.9c-0.9,0.5-1.7,0.8-2.5,0.8c-2.2,0-3.3-1.4-3.3-4.1c0-1.2,0.2-2.5,0.7-3.9
		c0.6-1.8,1.3-2.7,2.3-2.7c0.8,0,1.6,0.4,2.6,1.2s1.4,1.6,1.4,2.4c0,1-0.4,1.9-1.2,2.6c-0.8,0.7-1.7,1.1-2.8,1.1
		c-0.1,0-0.3-0.1-0.6-0.2C57.2,32.1,57,32,56.9,32c-0.2,0-0.3,0.1-0.3,0.2c0,1.9,0.6,2.8,1.9,2.8c0.6,0,1.2-0.2,1.8-0.6
		c0.3-0.2,0.7-0.6,1.1-1.1c0.3-0.4,0.5-0.6,0.6-0.6C62.3,32.6,62.4,32.8,62.4,33.3z M60.7,28.8c0-0.6-0.2-1.1-0.5-1.6
		s-0.8-0.7-1.3-0.7c-0.7,0-1.2,0.4-1.6,1.2c-0.3,0.7-0.5,1.4-0.5,2.1c0,0.5,0.2,0.9,0.5,1.2c0.3,0.3,0.7,0.5,1.2,0.5
		c0.7,0,1.2-0.3,1.7-0.9C60.5,30.1,60.7,29.5,60.7,28.8z"/>
</g>
<g class="st8">
	<path class="st2" d="M71,36.4c0,0.2-0.2,0.3-0.5,0.3c-0.4,0-0.6-0.2-0.7-0.5c0,0,0-0.4,0-1c0-0.2,0-0.3-0.1-0.4c-0.9,0.7-1.9,1-3,1
		c-0.7,0-1.5-0.2-2.1-0.6c-0.8-0.5-1.2-1-1.2-1.7c0-0.7,0.5-1.3,1.4-1.9c0.9-0.6,1.6-0.9,2.4-0.9h2.4c0.1-0.1,0.1-0.3,0.1-0.5
		c0-1.1-0.1-1.9-0.3-2.5c-0.3-0.9-0.9-1.4-1.7-1.4c-0.6,0-1.2,0.4-1.7,1.2c-0.5,0.7-0.7,1.4-0.7,2c0,0,0,0.1,0,0.1s0,0.1,0,0.1
		c0,0.1-0.1,0.2-0.2,0.2c-0.2,0-0.3-0.1-0.5-0.3c-0.2-0.2-0.3-0.4-0.3-0.5c0-0.5,0.1-1,0.4-1.7s0.6-1.2,0.9-1.6
		c0.4-0.4,0.9-0.7,1.5-0.7c0.9,0,1.8,0.3,2.6,0.9c0.8,0.6,1.3,1.4,1.3,2.3L71,36.4z M69.7,32.5c0-0.6-0.5-1-1.5-1
		c-0.8,0-1.5,0.1-2.1,0.4c-0.8,0.4-1.2,0.9-1.2,1.6c0,0.4,0.2,0.8,0.6,1c0.3,0.2,0.8,0.3,1.2,0.3c0.7,0,1.4-0.2,2-0.7
		C69.4,33.8,69.7,33.2,69.7,32.5z"/>
</g>
<g class="st8">
	<path class="st9" d="M71,36.4c0,0.2-0.2,0.3-0.5,0.3c-0.4,0-0.6-0.2-0.7-0.5c0,0,0-0.4,0-1c0-0.2,0-0.3-0.1-0.4c-0.9,0.7-1.9,1-3,1
		c-0.7,0-1.5-0.2-2.1-0.6c-0.8-0.5-1.2-1-1.2-1.7c0-0.7,0.5-1.3,1.4-1.9c0.9-0.6,1.6-0.9,2.4-0.9h2.4c0.1-0.1,0.1-0.3,0.1-0.5
		c0-1.1-0.1-1.9-0.3-2.5c-0.3-0.9-0.9-1.4-1.7-1.4c-0.6,0-1.2,0.4-1.7,1.2c-0.5,0.7-0.7,1.4-0.7,2c0,0,0,0.1,0,0.1s0,0.1,0,0.1
		c0,0.1-0.1,0.2-0.2,0.2c-0.2,0-0.3-0.1-0.5-0.3c-0.2-0.2-0.3-0.4-0.3-0.5c0-0.5,0.1-1,0.4-1.7s0.6-1.2,0.9-1.6
		c0.4-0.4,0.9-0.7,1.5-0.7c0.9,0,1.8,0.3,2.6,0.9c0.8,0.6,1.3,1.4,1.3,2.3L71,36.4z M69.7,32.5c0-0.6-0.5-1-1.5-1
		c-0.8,0-1.5,0.1-2.1,0.4c-0.8,0.4-1.2,0.9-1.2,1.6c0,0.4,0.2,0.8,0.6,1c0.3,0.2,0.8,0.3,1.2,0.3c0.7,0,1.4-0.2,2-0.7
		C69.4,33.8,69.7,33.2,69.7,32.5z"/>
</g>
<g class="st8">
	<path class="st2" d="M74.6,35.4c0,0.4-0.2,0.6-0.7,0.6c-0.7,0-1.1-1.5-1.1-4.4l0.1-10.9c0-0.2,0-0.4-0.1-0.8c0-0.3-0.1-0.6-0.1-0.7
		c0.3-0.2,0.6-0.3,0.8-0.3c0.2,0,0.5,0.1,0.7,0.2c0.2,0.2,0.3,0.4,0.3,0.6c0,0.2,0,0.4-0.1,0.6c-0.1,0.3-0.2,0.5-0.2,0.6
		c-0.2,1.1-0.3,2.6-0.3,4.6c0,3.2,0,4.7,0,4.6c0,2,0.2,3.5,0.4,4.5c0,0,0,0.2,0.1,0.3S74.6,35.3,74.6,35.4z"/>
</g>
<g class="st8">
	<path class="st9" d="M74.6,35.4c0,0.4-0.2,0.6-0.7,0.6c-0.7,0-1.1-1.5-1.1-4.4l0.1-10.9c0-0.2,0-0.4-0.1-0.8c0-0.3-0.1-0.6-0.1-0.7
		c0.3-0.2,0.6-0.3,0.8-0.3c0.2,0,0.5,0.1,0.7,0.2c0.2,0.2,0.3,0.4,0.3,0.6c0,0.2,0,0.4-0.1,0.6c-0.1,0.3-0.2,0.5-0.2,0.6
		c-0.2,1.1-0.3,2.6-0.3,4.6c0,3.2,0,4.7,0,4.6c0,2,0.2,3.5,0.4,4.5c0,0,0,0.2,0.1,0.3S74.6,35.3,74.6,35.4z"/>
</g>
<g class="st8">
	<path class="st2" d="M82.8,34.3c0,0.6-0.4,1.1-1.3,1.4c-0.7,0.3-1.4,0.5-2.1,0.5c-0.4,0-1-0.1-1.5-0.3c-0.3-0.1-0.8-0.5-1.5-1
		c-0.8-0.6-1.1-1-1.1-1.3c0-0.5,0.3-0.7,0.9-0.7h0.1c0,0.5,0.6,1,1.6,1.6c0.9,0.5,1.7,0.8,2.2,0.8c0.7,0,1.1-0.2,1.1-0.7
		c0-0.3-0.4-0.7-1.3-1.2c-1.2-0.7-2-1.3-2.5-1.7c-0.9-0.9-1.4-1.9-1.4-3c0-0.8,0.2-1.7,0.7-2.4c0.5-0.9,1.1-1.4,1.9-1.4
		c0.6,0,1.2,0.3,2,0.8c0.8,0.5,1.2,1,1.4,1.5c0.1,0.4,0.2,1,0.2,1.5c0,0.6-0.1,1.3-0.3,2.1c-0.1,0.1-0.3,0.2-0.5,0.2
		c-0.1,0-0.3,0-0.5-0.1c-0.2-0.1-0.4-0.2-0.4-0.3c0,0.1,0.1-0.1,0.3-0.5c0.1-0.3,0.2-0.8,0.2-1.5c0-1.7-0.5-2.6-1.6-2.6
		c-0.6,0-1,0.4-1.4,1.1c-0.3,0.6-0.4,1.2-0.4,1.9c0,0.8,0.5,1.6,1.4,2.3c0.3,0.3,1.2,0.8,2.6,1.7C82.3,33.5,82.8,33.9,82.8,34.3z"/>
	<path class="st2" d="M100.1,31.9c0,0.3-0.1,0.6-0.2,1c-0.3,1-1,1.8-2.1,2.4c-1,0.6-2,0.8-3.2,0.8c-1.9,0-3.4-0.8-4.3-2.3
		c-0.8-1.3-1.2-2.9-1.2-4.9c0-1.7,0.3-3.3,0.8-4.9c0.6-1.8,1.4-3.2,2.6-4.1c0.8-0.7,1.7-1.1,2.5-1.1c1.3,0,2.2,0.6,2.8,1.8
		c0.5,0.9,0.7,2.1,0.7,3.5c0,0.7-0.1,1.5-0.3,2.4c-0.3,1.2-0.6,1.8-1.1,1.8c-0.3,0-0.6-0.2-0.7-0.5c0.1-0.1,0.3-0.2,0.5-0.3
		c0.4-0.4,0.6-1.4,0.6-3c0-1-0.2-1.9-0.5-2.8c-0.5-1.1-1.1-1.7-1.9-1.7c-0.6,0-1.3,0.4-2,1.1c-0.5,0.6-1,1.2-1.4,2
		c-0.8,1.7-1.3,3.8-1.3,6.4c0,1.7,0.3,3,0.9,4c0.7,1.2,1.9,1.9,3.4,1.9c0.9,0,1.6-0.2,2.3-0.7c0.7-0.4,1.2-1,1.6-1.8
		c0.1-0.2,0.2-0.6,0.4-1c0.1-0.2,0.3-0.3,0.5-0.3C99.9,31.4,100.1,31.6,100.1,31.9z"/>
	<path class="st2" d="M108.8,30.9c0,1.4-0.3,2.6-0.9,3.7c-0.7,1.3-1.8,1.9-3.1,1.9c-1.3,0-2.3-0.5-3-1.5c-0.5-0.8-0.8-2-0.8-3.4
		c0-1.4,0.3-2.7,0.9-4.1c0.8-1.6,1.8-2.5,3-2.5c0.3,0,0.8,0.2,1.3,0.5C107.9,26.6,108.8,28.4,108.8,30.9z M107.6,30.9
		c0-1-0.1-2-0.4-2.8c-0.4-1.2-1-1.7-1.9-1.7c-1,0-1.8,0.6-2.3,1.9c-0.4,1-0.6,2.1-0.6,3.2c0,1,0.1,1.9,0.4,2.6c0.4,1,1.1,1.4,2,1.4
		c1,0,1.7-0.6,2.2-1.7C107.4,33,107.6,32,107.6,30.9z"/>
	<path class="st2" d="M115.5,27c0,0.1,0,0.2,0,0.4c-0.2,0.3-0.4,0.5-0.6,0.5c-0.1,0-0.2-0.1-0.3-0.2c0-1-0.5-1.5-1.3-1.5
		c-0.5,0-1,1-1.5,2.9c-0.2,0.7-0.3,1.6-0.3,2.8c0,1.5,0,2.4,0.1,2.8c0,0,0.1,0.2,0.1,0.3c0.1,0.2,0.1,0.3,0.1,0.4
		c0,0.4-0.2,0.5-0.7,0.5c-0.6,0-0.8-0.3-0.8-0.9c0-0.1,0-0.2,0.1-0.4s0.1-0.3,0.1-0.4c0-0.9,0-2.2-0.1-4c-0.1-1.8-0.1-3.1-0.1-4
		c0-0.3,0.1-0.5,0.2-0.6c0.1-0.1,0.3-0.1,0.7-0.1c0.4,0,0.6,0.1,0.7,0.4c0,0.3,0,0.6,0,1c0.4-0.6,0.7-1,0.7-1.1
		c0.4-0.4,0.7-0.6,1.1-0.6c0.3,0,0.6,0.1,0.9,0.3c0.2,0.1,0.4,0.3,0.7,0.8C115.3,26.6,115.5,26.9,115.5,27z"/>
</g>
<g class="st8">
	<path class="st9" d="M82.8,34.3c0,0.6-0.4,1.1-1.3,1.4c-0.7,0.3-1.4,0.5-2.1,0.5c-0.4,0-1-0.1-1.5-0.3c-0.3-0.1-0.8-0.5-1.5-1
		c-0.8-0.6-1.1-1-1.1-1.3c0-0.5,0.3-0.7,0.9-0.7h0.1c0,0.5,0.6,1,1.6,1.6c0.9,0.5,1.7,0.8,2.2,0.8c0.7,0,1.1-0.2,1.1-0.7
		c0-0.3-0.4-0.7-1.3-1.2c-1.2-0.7-2-1.3-2.5-1.7c-0.9-0.9-1.4-1.9-1.4-3c0-0.8,0.2-1.7,0.7-2.4c0.5-0.9,1.1-1.4,1.9-1.4
		c0.6,0,1.2,0.3,2,0.8c0.8,0.5,1.2,1,1.4,1.5c0.1,0.4,0.2,1,0.2,1.5c0,0.6-0.1,1.3-0.3,2.1c-0.1,0.1-0.3,0.2-0.5,0.2
		c-0.1,0-0.3,0-0.5-0.1c-0.2-0.1-0.4-0.2-0.4-0.3c0,0.1,0.1-0.1,0.3-0.5c0.1-0.3,0.2-0.8,0.2-1.5c0-1.7-0.5-2.6-1.6-2.6
		c-0.6,0-1,0.4-1.4,1.1c-0.3,0.6-0.4,1.2-0.4,1.9c0,0.8,0.5,1.6,1.4,2.3c0.3,0.3,1.2,0.8,2.6,1.7C82.3,33.5,82.8,33.9,82.8,34.3z"/>
	<path class="st9" d="M100.1,31.9c0,0.3-0.1,0.6-0.2,1c-0.3,1-1,1.8-2.1,2.4c-1,0.6-2,0.8-3.2,0.8c-1.9,0-3.4-0.8-4.3-2.3
		c-0.8-1.3-1.2-2.9-1.2-4.9c0-1.7,0.3-3.3,0.8-4.9c0.6-1.8,1.4-3.2,2.6-4.1c0.8-0.7,1.7-1.1,2.5-1.1c1.3,0,2.2,0.6,2.8,1.8
		c0.5,0.9,0.7,2.1,0.7,3.5c0,0.7-0.1,1.5-0.3,2.4c-0.3,1.2-0.6,1.8-1.1,1.8c-0.3,0-0.6-0.2-0.7-0.5c0.1-0.1,0.3-0.2,0.5-0.3
		c0.4-0.4,0.6-1.4,0.6-3c0-1-0.2-1.9-0.5-2.8c-0.5-1.1-1.1-1.7-1.9-1.7c-0.6,0-1.3,0.4-2,1.1c-0.5,0.6-1,1.2-1.4,2
		c-0.8,1.7-1.3,3.8-1.3,6.4c0,1.7,0.3,3,0.9,4c0.7,1.2,1.9,1.9,3.4,1.9c0.9,0,1.6-0.2,2.3-0.7c0.7-0.4,1.2-1,1.6-1.8
		c0.1-0.2,0.2-0.6,0.4-1c0.1-0.2,0.3-0.3,0.5-0.3C99.9,31.4,100.1,31.6,100.1,31.9z"/>
	<path class="st9" d="M108.8,30.9c0,1.4-0.3,2.6-0.9,3.7c-0.7,1.3-1.8,1.9-3.1,1.9c-1.3,0-2.3-0.5-3-1.5c-0.5-0.8-0.8-2-0.8-3.4
		c0-1.4,0.3-2.7,0.9-4.1c0.8-1.6,1.8-2.5,3-2.5c0.3,0,0.8,0.2,1.3,0.5C107.9,26.6,108.8,28.4,108.8,30.9z M107.6,30.9
		c0-1-0.1-2-0.4-2.8c-0.4-1.2-1-1.7-1.9-1.7c-1,0-1.8,0.6-2.3,1.9c-0.4,1-0.6,2.1-0.6,3.2c0,1,0.1,1.9,0.4,2.6c0.4,1,1.1,1.4,2,1.4
		c1,0,1.7-0.6,2.2-1.7C107.4,33,107.6,32,107.6,30.9z"/>
	<path class="st9" d="M115.5,27c0,0.1,0,0.2,0,0.4c-0.2,0.3-0.4,0.5-0.6,0.5c-0.1,0-0.2-0.1-0.3-0.2c0-1-0.5-1.5-1.3-1.5
		c-0.5,0-1,1-1.5,2.9c-0.2,0.7-0.3,1.6-0.3,2.8c0,1.5,0,2.4,0.1,2.8c0,0,0.1,0.2,0.1,0.3c0.1,0.2,0.1,0.3,0.1,0.4
		c0,0.4-0.2,0.5-0.7,0.5c-0.6,0-0.8-0.3-0.8-0.9c0-0.1,0-0.2,0.1-0.4s0.1-0.3,0.1-0.4c0-0.9,0-2.2-0.1-4c-0.1-1.8-0.1-3.1-0.1-4
		c0-0.3,0.1-0.5,0.2-0.6c0.1-0.1,0.3-0.1,0.7-0.1c0.4,0,0.6,0.1,0.7,0.4c0,0.3,0,0.6,0,1c0.4-0.6,0.7-1,0.7-1.1
		c0.4-0.4,0.7-0.6,1.1-0.6c0.3,0,0.6,0.1,0.9,0.3c0.2,0.1,0.4,0.3,0.7,0.8C115.3,26.6,115.5,26.9,115.5,27z"/>
</g>
<g class="st8">
	<path class="st2" d="M124.5,35.8c-0.1,0.2-0.2,0.3-0.4,0.3s-0.4-0.1-0.8-0.3v-0.2c0-0.1,0-0.4,0-0.7c0-0.3,0-0.5,0-0.6
		c0-5.4-0.7-8.1-2-8.1c-0.4,0-0.9,0.3-1.4,0.9c-1.2,1.5-1.9,3.5-1.9,5.8c0,0.3,0,0.8,0.1,1.4c0.1,0.6,0.1,1,0.1,1.4
		c0,0.2-0.2,0.4-0.5,0.4c-0.6,0-1-0.5-1-1.5v-5.5c0-0.1,0-0.4,0-0.6c0-0.3,0-0.5,0-0.6c0-0.2,0-0.5-0.1-0.9
		c-0.1-0.4-0.1-0.7-0.1-0.9c0-0.1,0.1-0.3,0.3-0.5s0.4-0.3,0.5-0.3c0.2,0,0.4,0.1,0.6,0.3c0,1.1-0.1,1.7-0.1,1.9c0,0.2,0,0.5,0,0.7
		c0.1,0,0.3-0.3,0.6-0.8c0.3-0.6,0.6-1,0.8-1.3c0.4-0.5,0.8-0.7,1.4-0.7c0.2,0,0.5,0.1,0.9,0.2c0.9,0.3,1.5,0.9,1.9,1.6
		c0.6,1.3,1,3,1,5.1V35.8z"/>
</g>
<g class="st8">
	<path class="st9" d="M124.5,35.8c-0.1,0.2-0.2,0.3-0.4,0.3s-0.4-0.1-0.8-0.3v-0.2c0-0.1,0-0.4,0-0.7c0-0.3,0-0.5,0-0.6
		c0-5.4-0.7-8.1-2-8.1c-0.4,0-0.9,0.3-1.4,0.9c-1.2,1.5-1.9,3.5-1.9,5.8c0,0.3,0,0.8,0.1,1.4c0.1,0.6,0.1,1,0.1,1.4
		c0,0.2-0.2,0.4-0.5,0.4c-0.6,0-1-0.5-1-1.5v-5.5c0-0.1,0-0.4,0-0.6c0-0.3,0-0.5,0-0.6c0-0.2,0-0.5-0.1-0.9
		c-0.1-0.4-0.1-0.7-0.1-0.9c0-0.1,0.1-0.3,0.3-0.5s0.4-0.3,0.5-0.3c0.2,0,0.4,0.1,0.6,0.3c0,1.1-0.1,1.7-0.1,1.9c0,0.2,0,0.5,0,0.7
		c0.1,0,0.3-0.3,0.6-0.8c0.3-0.6,0.6-1,0.8-1.3c0.4-0.5,0.8-0.7,1.4-0.7c0.2,0,0.5,0.1,0.9,0.2c0.9,0.3,1.5,0.9,1.9,1.6
		c0.6,1.3,1,3,1,5.1V35.8z"/>
</g>
<g class="st8">
	<path class="st2" d="M133.1,33.3c0,0.7-0.5,1.4-1.5,1.9c-0.9,0.5-1.7,0.8-2.5,0.8c-2.2,0-3.3-1.4-3.3-4.1c0-1.2,0.2-2.5,0.7-3.9
		c0.6-1.8,1.3-2.7,2.3-2.7c0.8,0,1.6,0.4,2.6,1.2c0.9,0.8,1.4,1.6,1.4,2.4c0,1-0.4,1.9-1.2,2.6c-0.8,0.7-1.7,1.1-2.8,1.1
		c-0.1,0-0.3-0.1-0.6-0.2c-0.3-0.2-0.5-0.2-0.7-0.2c-0.2,0-0.3,0.1-0.3,0.2c0,1.9,0.6,2.8,1.9,2.8c0.6,0,1.2-0.2,1.8-0.6
		c0.3-0.2,0.7-0.6,1.1-1.1c0.3-0.4,0.5-0.6,0.6-0.6C132.9,32.6,133.1,32.8,133.1,33.3z M131.4,28.8c0-0.6-0.2-1.1-0.5-1.6
		s-0.8-0.7-1.3-0.7c-0.7,0-1.2,0.4-1.6,1.2c-0.3,0.7-0.5,1.4-0.5,2.1c0,0.5,0.2,0.9,0.5,1.2c0.3,0.3,0.7,0.5,1.2,0.5
		c0.7,0,1.2-0.3,1.7-0.9C131.1,30.1,131.4,29.5,131.4,28.8z"/>
	<path class="st2" d="M139.6,27c0,0.1,0,0.2,0,0.4c-0.2,0.3-0.4,0.5-0.6,0.5c-0.1,0-0.2-0.1-0.3-0.2c0-1-0.5-1.5-1.3-1.5
		c-0.5,0-1,1-1.5,2.9c-0.2,0.7-0.3,1.6-0.3,2.8c0,1.5,0,2.4,0.1,2.8c0,0,0.1,0.2,0.1,0.3c0.1,0.2,0.1,0.3,0.1,0.4
		c0,0.4-0.2,0.5-0.7,0.5c-0.6,0-0.8-0.3-0.8-0.9c0-0.1,0-0.2,0.1-0.4s0.1-0.3,0.1-0.4c0-0.9,0-2.2-0.1-4c-0.1-1.8-0.1-3.1-0.1-4
		c0-0.3,0.1-0.5,0.2-0.6c0.1-0.1,0.3-0.1,0.7-0.1c0.4,0,0.6,0.1,0.7,0.4c0,0.3,0,0.6,0,1c0.4-0.6,0.7-1,0.7-1.1
		c0.4-0.4,0.7-0.6,1.1-0.6c0.3,0,0.6,0.1,0.9,0.3c0.2,0.1,0.4,0.3,0.7,0.8C139.5,26.6,139.6,26.9,139.6,27z"/>
</g>
<g class="st8">
	<path class="st9" d="M133.1,33.3c0,0.7-0.5,1.4-1.5,1.9c-0.9,0.5-1.7,0.8-2.5,0.8c-2.2,0-3.3-1.4-3.3-4.1c0-1.2,0.2-2.5,0.7-3.9
		c0.6-1.8,1.3-2.7,2.3-2.7c0.8,0,1.6,0.4,2.6,1.2c0.9,0.8,1.4,1.6,1.4,2.4c0,1-0.4,1.9-1.2,2.6c-0.8,0.7-1.7,1.1-2.8,1.1
		c-0.1,0-0.3-0.1-0.6-0.2c-0.3-0.2-0.5-0.2-0.7-0.2c-0.2,0-0.3,0.1-0.3,0.2c0,1.9,0.6,2.8,1.9,2.8c0.6,0,1.2-0.2,1.8-0.6
		c0.3-0.2,0.7-0.6,1.1-1.1c0.3-0.4,0.5-0.6,0.6-0.6C132.9,32.6,133.1,32.8,133.1,33.3z M131.4,28.8c0-0.6-0.2-1.1-0.5-1.6
		s-0.8-0.7-1.3-0.7c-0.7,0-1.2,0.4-1.6,1.2c-0.3,0.7-0.5,1.4-0.5,2.1c0,0.5,0.2,0.9,0.5,1.2c0.3,0.3,0.7,0.5,1.2,0.5
		c0.7,0,1.2-0.3,1.7-0.9C131.1,30.1,131.4,29.5,131.4,28.8z"/>
	<path class="st9" d="M139.6,27c0,0.1,0,0.2,0,0.4c-0.2,0.3-0.4,0.5-0.6,0.5c-0.1,0-0.2-0.1-0.3-0.2c0-1-0.5-1.5-1.3-1.5
		c-0.5,0-1,1-1.5,2.9c-0.2,0.7-0.3,1.6-0.3,2.8c0,1.5,0,2.4,0.1,2.8c0,0,0.1,0.2,0.1,0.3c0.1,0.2,0.1,0.3,0.1,0.4
		c0,0.4-0.2,0.5-0.7,0.5c-0.6,0-0.8-0.3-0.8-0.9c0-0.1,0-0.2,0.1-0.4s0.1-0.3,0.1-0.4c0-0.9,0-2.2-0.1-4c-0.1-1.8-0.1-3.1-0.1-4
		c0-0.3,0.1-0.5,0.2-0.6c0.1-0.1,0.3-0.1,0.7-0.1c0.4,0,0.6,0.1,0.7,0.4c0,0.3,0,0.6,0,1c0.4-0.6,0.7-1,0.7-1.1
		c0.4-0.4,0.7-0.6,1.1-0.6c0.3,0,0.6,0.1,0.9,0.3c0.2,0.1,0.4,0.3,0.7,0.8C139.5,26.6,139.6,26.9,139.6,27z"/>
</g>
</svg>
