<svg id="Layer_1" data-name="Layer 1" xmlns="http://www.w3.org/2000/svg" viewBox="0 0 120 52.7"><defs><style>.cls-1{fill:#d6a685;}.cls-2{fill:#e2bb9f;}.cls-3,.cls-9{fill:#24484e;}.cls-4{fill:#204146;}.cls-5{fill:#506d71;}.cls-6{fill:#e2e2e2;}.cls-7{fill:#f2f2f2;}.cls-8{fill:#e5e5e5;}.cls-9{font-size:14.97px;stroke:#24484e;stroke-miterlimit:10;stroke-width:0.5px;font-family:Noteworthy-Light, Noteworthy;font-weight:300;}.cls-10{letter-spacing:-0.01em;}.cls-11{letter-spacing:0.03em;}.cls-12{letter-spacing:-0.03em;}.cls-13{letter-spacing:0em;}.cls-14{letter-spacing:0.01em;}</style></defs><title>Artboard 1</title><polyline class="cls-1" points="35.07 19.79 24.98 29.91 12.62 19.61 22.15 8.68 35.07 19.79"/><polyline class="cls-2" points="35.63 24.74 22.55 30.5 14.77 16.42 27.63 9.7 35.63 24.74"/><path class="cls-3" d="M28.14,31.83a12,12,0,1,1-4.47-16.44,12,12,0,0,1,4.47,16.44"/><path class="cls-4" d="M15.84,36.29h-.07c-.29-.05-.57-.1-.84-.17a10.43,10.43,0,0,1-4.22-2l.33-.74a10,10,0,0,0,4.87,2.11.4.4,0,0,1-.07.79M9.66,33.14a8.89,8.89,0,0,1-1.23-1.77,9,9,0,0,1-1-3.85.4.4,0,0,1,.39-.4h0a.4.4,0,0,1,.39.4,8.42,8.42,0,0,0,1.87,4.87l-.39.75"/><path class="cls-5" d="M25.35,19.14a.35.35,0,0,1-.27-.14,5.77,5.77,0,0,0-3.18-2.54.3.3,0,0,1-.24-.37.31.31,0,0,1,.31-.25H22a6.18,6.18,0,0,1,3.58,2.81.3.3,0,0,1-.09.43.26.26,0,0,1-.17.05"/><path class="cls-5" d="M26.79,21.36a.3.3,0,0,1-.28-.19,2.77,2.77,0,0,0-.63-1,.31.31,0,0,1,.2-.56.35.35,0,0,1,.19.06,3.4,3.4,0,0,1,.81,1.19.32.32,0,0,1-.16.42.28.28,0,0,1-.13,0"/><path class="cls-6" d="M8.39,39.32l6-13.5-.75-.36L6.82,38.57a.87.87,0,0,0,.4,1.18.86.86,0,0,0,1.17-.43"/><path class="cls-7" d="M17.64,24.84c-1,2-2.93,3.08-4.37,2.38s-1.82-2.89-.85-4.9,2.92-3.08,4.36-2.38,1.83,2.89.86,4.9"/><path class="cls-8" d="M13.55,27h0l-.1,0a1.6,1.6,0,0,1-1.08-1.15,2.4,2.4,0,0,1-.05-.84.18.18,0,0,1,.17-.15h0a.17.17,0,0,1,.14.19,1.43,1.43,0,0,0,1,1.63.18.18,0,0,1,.12.22.17.17,0,0,1-.17.12"/><path class="cls-8" d="M14.27,26.37a1.22,1.22,0,0,1-.54-.12c-.93-.44-1.1-2-.4-3.45a3.1,3.1,0,0,1,2.41-2,1.25,1.25,0,0,1,.54.12c.92.45,1.1,2,.39,3.46a3.1,3.1,0,0,1-2.4,2"/><path class="cls-6" d="M29.47,42.79l-6-13.5-.78.32,5.2,13.85a.87.87,0,1,0,1.61-.67"/><path class="cls-7" d="M22.58,24l1.13,2.74A.37.37,0,1,1,23,27l-1.28-3.1a.31.31,0,0,0-.29-.18.29.29,0,0,0-.26.41l1.3,3.15a.32.32,0,0,1-.17.41l-.12.05a.3.3,0,0,1-.39-.16l-1.29-3.12a.31.31,0,0,0-.58.24l1.29,3.14a.28.28,0,0,1-.15.36l-.17.07a.28.28,0,0,1-.36-.15l-1.13-2.74a.13.13,0,0,0-.24,0,4.92,4.92,0,0,0,.29,3.05c.85,2.06,2.74,3.24,4.22,2.63s2-2.78,1.14-4.85a4.9,4.9,0,0,0-2.07-2.43.14.14,0,0,0-.19.18"/><path class="cls-8" d="M22.62,30.93a1.66,1.66,0,0,1-.75-.19,2.18,2.18,0,0,1-.67-.52.17.17,0,0,1,0-.24.17.17,0,0,1,.11,0,.2.2,0,0,1,.14.06,1.64,1.64,0,0,0,1.15.59,1.32,1.32,0,0,0,.71-.23.19.19,0,0,1,.1,0,.17.17,0,0,1,.14.08.18.18,0,0,1-.05.24l-.09.05a1.57,1.57,0,0,1-.81.23"/><text class="cls-9" transform="translate(36.63 34.64) scale(1.01 1)">M<tspan class="cls-10" x="12.15" y="0">e</tspan><tspan class="cls-11" x="18.32" y="0">a</tspan><tspan class="cls-12" x="25.47" y="0">l</tspan><tspan class="cls-13" x="27.35" y="0">s Cor</tspan><tspan class="cls-14" x="58.89" y="0">n</tspan><tspan x="65.85" y="0">er</tspan></text></svg>